HIERARCHY
ROOT Hips
{
	OFFSET 0.000000 100.481300 0.000000
	CHANNELS 6 Xposition Yposition Zposition Xrotation Yrotation Zrotation 
	JOINT Spine
	{
		OFFSET -0.279200 12.230698 -2.892100
		CHANNELS 3 Xrotation Yrotation Zrotation
		JOINT Spine1
		{
			OFFSET -0.232667 10.192268 -1.242267
			CHANNELS 3 Xrotation Yrotation Zrotation
			JOINT Spine1_split
			{
				OFFSET -0.232667 10.192268 -1.242267
				CHANNELS 3 Xrotation Yrotation Zrotation
				JOINT Spine2
				{
					OFFSET -0.232667 10.192268 -1.242267
					CHANNELS 3 Xrotation Yrotation Zrotation
					JOINT Neck
					{
						OFFSET -0.418800 17.814194 8.416900
						CHANNELS 3 Xrotation Yrotation Zrotation
						JOINT Head
						{
							OFFSET 0.000000 7.031097 3.806800
							CHANNELS 3 Xrotation Yrotation Zrotation
							JOINT HeadTop_End
							{
								OFFSET 0.000000 24.646606 12.978600
								CHANNELS 3 Xrotation Yrotation Zrotation
								End Site
								{
									OFFSET 0.000000 0.000000 0.000000
								}
							}
						}
					}
					JOINT LeftShoulder
					{
						OFFSET 8.476499 7.247704 -3.868750
						CHANNELS 3 Xrotation Yrotation Zrotation
						JOINT LeftShoulder_split
						{
							OFFSET 8.476499 7.247704 -3.868750
							CHANNELS 3 Xrotation Yrotation Zrotation
							JOINT LeftArm
							{
								OFFSET 9.308998 -2.777710 0.208600
								CHANNELS 3 Xrotation Yrotation Zrotation
								JOINT LeftForeArm
								{
									OFFSET 29.972298 0.000000 0.000000
									CHANNELS 3 Xrotation Yrotation Zrotation
									JOINT LeftHand
									{
										OFFSET 26.026505 0.000000 0.000000
										CHANNELS 3 Xrotation Yrotation Zrotation
										JOINT LeftHandThumb1
										{
											OFFSET 12.240501 -7.147949 9.207150
											CHANNELS 3 Xrotation Yrotation Zrotation
											JOINT LeftHandThumb2
											{
												OFFSET 4.138618 -2.389435 2.389433
												CHANNELS 3 Xrotation Yrotation Zrotation
												JOINT LeftHandThumb3
												{
													OFFSET 2.726913 -1.574387 1.574386
													CHANNELS 3 Xrotation Yrotation Zrotation
													JOINT LeftHandThumb4
													{
														OFFSET 3.941010 -2.275345 2.275342
														CHANNELS 3 Xrotation Yrotation Zrotation
														End Site
														{
															OFFSET 0.000000 0.000000 0.000000
														}
													}
												}
											}
										}
										JOINT LeftHandIndex1
										{
											OFFSET 24.424698 -1.985611 5.953459
											CHANNELS 3 Xrotation Yrotation Zrotation
											JOINT LeftHandIndex2
											{
												OFFSET 6.426697 0.000000 0.000000
												CHANNELS 3 Xrotation Yrotation Zrotation
												JOINT LeftHandIndex3
												{
													OFFSET 5.337898 0.000000 0.000000
													CHANNELS 3 Xrotation Yrotation Zrotation
													JOINT LeftHandIndex4
													{
														OFFSET 4.409401 0.000000 0.000000
														CHANNELS 3 Xrotation Yrotation Zrotation
														End Site
														{
															OFFSET 0.000000 0.000000 0.000000
														}
													}
												}
											}
										}
										JOINT LeftHandMiddle1
										{
											OFFSET 23.810104 0.000000 0.000000
											CHANNELS 3 Xrotation Yrotation Zrotation
											JOINT LeftHandMiddle2
											{
												OFFSET 7.176498 0.000000 0.000000
												CHANNELS 3 Xrotation Yrotation Zrotation
												JOINT LeftHandMiddle3
												{
													OFFSET 6.774902 0.000000 0.000000
													CHANNELS 3 Xrotation Yrotation Zrotation
													JOINT LeftHandMiddle4
													{
														OFFSET 5.403328 0.000000 0.000000
														CHANNELS 3 Xrotation Yrotation Zrotation
														End Site
														{
															OFFSET 0.000000 0.000000 0.000000
														}
													}
												}
											}
										}
										JOINT LeftHandRing1
										{
											OFFSET 22.908401 -0.839279 -6.020567
											CHANNELS 3 Xrotation Yrotation Zrotation
											JOINT LeftHandRing2
											{
												OFFSET 6.337502 0.000000 0.000000
												CHANNELS 3 Xrotation Yrotation Zrotation
												JOINT LeftHandRing3
												{
													OFFSET 5.779297 0.000000 0.000000
													CHANNELS 3 Xrotation Yrotation Zrotation
													JOINT LeftHandRing4
													{
														OFFSET 4.965698 0.000000 0.000000
														CHANNELS 3 Xrotation Yrotation Zrotation
														End Site
														{
															OFFSET 0.000000 0.000000 0.000000
														}
													}
												}
											}
										}
										JOINT LeftHandPinky1
										{
											OFFSET 20.037003 -1.530319 -10.950146
											CHANNELS 3 Xrotation Yrotation Zrotation
											JOINT LeftHandPinky2
											{
												OFFSET 5.254700 0.000000 0.000000
												CHANNELS 3 Xrotation Yrotation Zrotation
												JOINT LeftHandPinky3
												{
													OFFSET 4.810204 0.000000 0.000000
													CHANNELS 3 Xrotation Yrotation Zrotation
													JOINT LeftHandPinky4
													{
														OFFSET 3.647202 0.000000 0.000000
														CHANNELS 3 Xrotation Yrotation Zrotation
														End Site
														{
															OFFSET 0.000000 0.000000 0.000000
														}
													}
												}
											}
										}
									}
								}
							}
						}
					}
					JOINT RightShoulder
					{
						OFFSET -7.570500 7.247704 -3.868750
						CHANNELS 3 Xrotation Yrotation Zrotation
						JOINT RightShoulder_split
						{
							OFFSET -7.570500 7.247704 -3.868750
							CHANNELS 3 Xrotation Yrotation Zrotation
							JOINT RightArm
							{
								OFFSET -9.308998 -2.777710 0.208500
								CHANNELS 3 Xrotation Yrotation Zrotation
								JOINT RightForeArm
								{
									OFFSET -29.972300 0.000000 0.000000
									CHANNELS 3 Xrotation Yrotation Zrotation
									JOINT RightHand
									{
										OFFSET -26.026505 0.000000 0.000000
										CHANNELS 3 Xrotation Yrotation Zrotation
										JOINT RightHandThumb1
										{
											OFFSET -12.240601 -7.148026 9.207092
											CHANNELS 3 Xrotation Yrotation Zrotation
											JOINT RightHandThumb2
											{
												OFFSET -4.138618 -2.389435 2.389433
												CHANNELS 3 Xrotation Yrotation Zrotation
												JOINT RightHandThumb3
												{
													OFFSET -2.726974 -1.574417 1.574421
													CHANNELS 3 Xrotation Yrotation Zrotation
													JOINT RightHandThumb4
													{
														OFFSET -3.941010 -2.275345 2.275343
														CHANNELS 3 Xrotation Yrotation Zrotation
														End Site
														{
															OFFSET 0.000000 0.000000 0.000000
														}
													}
												}
											}
										}
										JOINT RightHandIndex1
										{
											OFFSET -24.424698 -1.985657 5.953444
											CHANNELS 3 Xrotation Yrotation Zrotation
											JOINT RightHandIndex2
											{
												OFFSET -6.426697 0.000000 0.000000
												CHANNELS 3 Xrotation Yrotation Zrotation
												JOINT RightHandIndex3
												{
													OFFSET -5.337898 0.000000 0.000000
													CHANNELS 3 Xrotation Yrotation Zrotation
													JOINT RightHandIndex4
													{
														OFFSET -4.409401 0.000000 0.000000
														CHANNELS 3 Xrotation Yrotation Zrotation
														End Site
														{
															OFFSET 0.000000 0.000000 0.000000
														}
													}
												}
											}
										}
										JOINT RightHandMiddle1
										{
											OFFSET -23.810097 0.000000 0.000000
											CHANNELS 3 Xrotation Yrotation Zrotation
											JOINT RightHandMiddle2
											{
												OFFSET -7.176498 0.000000 0.000000
												CHANNELS 3 Xrotation Yrotation Zrotation
												JOINT RightHandMiddle3
												{
													OFFSET -6.774902 0.000000 0.000000
													CHANNELS 3 Xrotation Yrotation Zrotation
													JOINT RightHandMiddle4
													{
														OFFSET -5.403328 0.000000 0.000000
														CHANNELS 3 Xrotation Yrotation Zrotation
														End Site
														{
															OFFSET 0.000000 0.000000 0.000000
														}
													}
												}
											}
										}
										JOINT RightHandRing1
										{
											OFFSET -22.908302 -0.839325 -6.020576
											CHANNELS 3 Xrotation Yrotation Zrotation
											JOINT RightHandRing2
											{
												OFFSET -6.337502 0.000000 0.000000
												CHANNELS 3 Xrotation Yrotation Zrotation
												JOINT RightHandRing3
												{
													OFFSET -5.779297 0.000000 0.000000
													CHANNELS 3 Xrotation Yrotation Zrotation
													JOINT RightHandRing4
													{
														OFFSET -4.965698 0.000000 0.000000
														CHANNELS 3 Xrotation Yrotation Zrotation
														End Site
														{
															OFFSET 0.000000 0.000000 0.000000
														}
													}
												}
											}
										}
										JOINT RightHandPinky1
										{
											OFFSET -20.037003 -1.530334 -10.950259
											CHANNELS 3 Xrotation Yrotation Zrotation
											JOINT RightHandPinky2
											{
												OFFSET -5.254700 0.000000 0.000000
												CHANNELS 3 Xrotation Yrotation Zrotation
												JOINT RightHandPinky3
												{
													OFFSET -4.810204 0.000000 0.000000
													CHANNELS 3 Xrotation Yrotation Zrotation
													JOINT RightHandPinky4
													{
														OFFSET -3.647202 0.000000 0.000000
														CHANNELS 3 Xrotation Yrotation Zrotation
														End Site
														{
															OFFSET 0.000000 0.000000 0.000000
														}
													}
												}
											}
										}
									}
								}
							}
						}
					}
				}
			}
		}
	}
	JOINT LeftUpLeg
	{
		OFFSET 15.427100 -6.655098 0.678600
		CHANNELS 3 Xrotation Yrotation Zrotation
		JOINT LeftLeg
		{
			OFFSET 4.081073 -39.591068 13.024000
			CHANNELS 3 Xrotation Yrotation Zrotation
			JOINT LeftFoot
			{
				OFFSET -4.081074 -37.707932 -15.979700
				CHANNELS 3 Xrotation Yrotation Zrotation
				JOINT LeftToeBase
				{
					OFFSET 5.346399 -15.068900 20.645000
					CHANNELS 3 Xrotation Yrotation Zrotation
					JOINT LeftToe_End
					{
						OFFSET 2.754700 0.931300 11.300900
						CHANNELS 3 Xrotation Yrotation Zrotation
						End Site
						{
							OFFSET 0.000000 0.000000 0.000000
						}
					}
				}
			}
		}
	}
	JOINT RightUpLeg
	{
		OFFSET -15.569500 -6.655098 0.678600
		CHANNELS 3 Xrotation Yrotation Zrotation
		JOINT RightLeg
		{
			OFFSET -4.081825 -39.591045 13.023800
			CHANNELS 3 Xrotation Yrotation Zrotation
			JOINT RightFoot
			{
				OFFSET 4.081824 -37.707954 -15.979600
				CHANNELS 3 Xrotation Yrotation Zrotation
				JOINT RightToeBase
				{
					OFFSET -5.346400 -15.068900 20.645000
					CHANNELS 3 Xrotation Yrotation Zrotation
					JOINT RightToe_End
					{
						OFFSET -2.754700 0.931300 11.300900
						CHANNELS 3 Xrotation Yrotation Zrotation
						End Site
						{
							OFFSET 0.000000 0.000000 0.000000
						}
					}
				}
			}
		}
	}
}
MOTION
Frames: 4
Frame Time: 0.016667
0.491271 80.732201 -0.852082 -0.670462 -15.866306 -1.474236 3.775696 1.264926 0.062953 2.523602 1.177440 -0.059023 0.000000 0.000000 0.000000 2.503912 1.224026 -0.090937 0.457849 0.824228 4.848789 8.545303 11.130796 -0.783160 -0.000001 -0.000000 -0.000000 0.513447 1.082366 14.986781 0.000000 0.000000 0.000000 -49.547435 -53.697178 -56.631977 -0.000002 -52.589561 -0.000001 -101.282546 -0.136449 2.488760 35.234538 -17.219617 -17.236886 29.406840 28.726522 -29.411778 9.113609 14.378716 -9.922576 0.000001 -0.000000 -0.000000 0.797682 3.221909 -27.804749 0.799598 3.225521 -27.838615 0.202691 1.661525 -13.908060 -0.000003 0.000002 -0.000002 0.796782 3.220215 -27.788720 0.800500 3.227229 -27.854644 0.202682 1.661525 -13.908053 -0.000003 -0.000001 -0.000002 0.797682 3.221909 -27.804749 0.799596 3.225522 -27.838613 0.202689 1.661520 -13.908056 0.000001 -0.000000 0.000000 2.684952 6.814110 -27.459497 0.809060 -0.835567 -28.291871 0.202692 1.661524 -13.908061 0.000000 0.000000 0.000001 0.384722 -1.325532 -0.769391 0.000000 0.000000 0.000000 3.865881 95.192135 -10.302272 0.000001 25.659967 0.000000 -50.084247 -3.447568 -9.781605 40.606639 -3.110519 26.124241 -37.849476 -44.265029 -46.874946 -12.282880 -22.415209 -17.633349 -0.000004 0.000000 -0.000000 3.635317 -6.111007 61.464490 7.728614 -6.904468 96.464456 2.305146 -5.174781 47.998758 0.000002 0.000001 -0.000002 3.635317 -6.111006 61.464497 7.728617 -6.904471 96.464456 2.305146 -5.174788 47.998755 0.000000 0.000001 -0.000001 3.635320 -6.111004 61.464497 7.728617 -6.904481 96.464456 2.305147 -5.174782 47.998755 0.000005 -0.000002 0.000001 3.635317 -6.111007 61.464497 7.728628 -6.904483 96.464456 2.305148 -5.174778 47.998758 -0.000002 0.000001 -0.000001 -34.088354 16.789293 15.237348 50.399809 2.984535 9.835930 -17.572607 2.191342 -12.366333 -0.201335 -0.000005 -0.000003 0.000000 -0.000001 -0.000000 -28.978461 -20.726101 -12.080170 49.610133 -2.485230 -9.717470 -21.315205 -2.884295 11.762115 -0.041266 0.000026 -0.000002 -0.000000 -0.000003 -0.000000 
0.521964 80.686493 -0.833276 -0.674227 -15.814712 -1.460434 3.767430 1.245484 0.106534 2.514745 1.164374 -0.024040 0.000000 0.000000 0.000000 2.495215 1.211957 -0.055856 0.444798 0.831758 4.833578 8.560009 11.165286 -0.906731 -0.000001 -0.000000 -0.000000 0.748157 0.781683 15.125090 0.000000 0.000000 0.000000 -49.125883 -53.329902 -56.178873 -0.000002 -52.952493 0.000002 -101.491243 -0.073158 2.700985 35.234549 -17.219616 -17.236886 29.406840 28.726515 -29.411785 9.113608 14.378721 -9.922574 0.000000 -0.000001 0.000001 0.797686 3.221913 -27.804749 0.799601 3.225523 -27.838615 0.202689 1.661521 -13.908061 0.000001 0.000001 0.000001 0.796783 3.220215 -27.788719 0.800501 3.227229 -27.854645 0.202684 1.661523 -13.908058 0.000001 0.000002 0.000002 0.797687 3.221911 -27.804747 0.799598 3.225524 -27.838606 0.202689 1.661517 -13.908058 -0.000001 -0.000002 -0.000001 2.684958 6.814113 -27.459497 0.809062 -0.835567 -28.291871 0.202694 1.661523 -13.908061 0.000000 -0.000000 -0.000002 0.387289 -1.315635 -0.755623 0.000000 0.000000 0.000000 4.637198 95.148613 -10.970185 0.000000 25.704912 0.000000 -50.030316 -3.689109 -9.647764 40.606636 -3.110518 26.124237 -37.849466 -44.265029 -46.874950 -12.282880 -22.415209 -17.633349 -0.000002 -0.000001 -0.000000 3.635320 -6.111007 61.464490 7.728616 -6.904469 96.464449 2.305141 -5.174785 47.998758 -0.000001 -0.000001 -0.000000 3.635320 -6.111006 61.464497 7.728618 -6.904468 96.464449 2.305143 -5.174788 47.998762 0.000003 -0.000003 0.000000 3.635325 -6.111004 61.464497 7.728617 -6.904473 96.464449 2.305146 -5.174781 47.998758 -0.000001 0.000001 -0.000000 3.635320 -6.111007 61.464497 7.728628 -6.904479 96.464456 2.305141 -5.174777 47.998758 0.000002 -0.000001 -0.000001 -34.094440 16.711262 15.162077 50.487515 3.034086 9.833059 -17.625689 2.204044 -12.365397 -0.201398 0.000005 -0.000002 -0.000000 0.000000 -0.000000 -29.085439 -20.918445 -12.243177 49.706490 -2.340881 -9.721881 -21.365363 -2.837922 11.708932 -0.041345 -0.000003 0.000002 -0.000000 -0.000003 -0.000000 
0.559638 80.634598 -0.811144 -0.692304 -15.759572 -1.449492 3.766953 1.229171 0.157482 2.511989 1.154429 0.015427 0.000000 0.000000 0.000000 2.492557 1.203287 -0.016408 0.427323 0.835599 4.813935 8.559335 11.171112 -1.001660 0.000001 -0.000000 -0.000000 0.696102 0.770071 15.279763 0.000000 0.000000 0.000000 -49.162807 -53.221514 -56.426064 -0.000004 -52.964733 -0.000006 -101.561566 0.130811 2.653132 35.234542 -17.219616 -17.236882 29.406840 28.726515 -29.411782 9.113606 14.378709 -9.922575 -0.000001 -0.000003 0.000001 0.797686 3.221911 -27.804747 0.799596 3.225525 -27.838615 0.202692 1.661523 -13.908060 0.000000 0.000002 -0.000000 0.796783 3.220216 -27.788720 0.800501 3.227225 -27.854649 0.202683 1.661524 -13.908060 -0.000002 0.000003 0.000001 0.797686 3.221911 -27.804747 0.799597 3.225524 -27.838613 0.202687 1.661522 -13.908059 0.000000 0.000001 0.000000 2.684957 6.814112 -27.459497 0.809061 -0.835568 -28.291875 0.202691 1.661523 -13.908061 0.000002 -0.000003 0.000001 0.383952 -1.340515 -0.713609 0.000000 0.000000 0.000000 5.055046 95.126319 -11.279660 0.000001 25.763192 -0.000001 -50.049437 -3.937753 -9.643287 40.606636 -3.110519 26.124237 -37.849469 -44.265029 -46.874950 -12.282876 -22.415209 -17.633349 0.000002 0.000000 -0.000000 3.635318 -6.111007 61.464497 7.728615 -6.904467 96.464449 2.305148 -5.174782 47.998758 -0.000002 -0.000001 -0.000002 3.635318 -6.111006 61.464497 7.728619 -6.904473 96.464456 2.305144 -5.174786 47.998758 0.000000 0.000001 -0.000004 3.635322 -6.111005 61.464497 7.728619 -6.904477 96.464449 2.305149 -5.174782 47.998751 0.000003 -0.000002 -0.000000 3.635318 -6.111007 61.464497 7.728630 -6.904479 96.464456 2.305147 -5.174778 47.998755 -0.000001 0.000001 -0.000002 -34.076101 16.601369 15.067992 50.586246 3.110723 9.828284 -17.689278 2.225595 -12.376895 -0.201735 0.000002 -0.000001 0.000000 0.000000 0.000000 -29.190743 -21.125005 -12.425360 49.813867 -2.181357 -9.726762 -21.420167 -2.788274 11.654153 -0.041356 0.000007 -0.000002 0.000000 0.000002 -0.000000 
0.609024 80.578163 -0.785585 -0.726828 -15.712343 -1.439043 3.774292 1.217376 0.219753 2.515586 1.148446 0.062321 0.000000 0.000000 0.000000 2.496206 1.198883 0.030350 0.407233 0.837274 4.781249 8.539276 11.143540 -1.073497 -0.000000 -0.000000 -0.000000 0.649402 0.743678 15.445085 0.000000 0.000000 0.000000 -49.232229 -53.041299 -56.699453 -0.000004 -52.985104 -0.000005 -101.509063 0.375119 2.524162 35.234542 -17.219616 -17.236891 29.406840 28.726522 -29.411782 9.113608 14.378714 -9.922574 0.000001 -0.000002 0.000001 0.797687 3.221912 -27.804747 0.799599 3.225523 -27.838618 0.202693 1.661524 -13.908059 -0.000001 -0.000000 -0.000002 0.796783 3.220217 -27.788725 0.800500 3.227226 -27.854649 0.202686 1.661523 -13.908054 -0.000000 0.000001 -0.000000 0.797687 3.221912 -27.804752 0.799599 3.225523 -27.838615 0.202690 1.661520 -13.908060 0.000001 -0.000000 -0.000002 2.684956 6.814114 -27.459498 0.809061 -0.835566 -28.291870 0.202692 1.661524 -13.908061 0.000003 0.000001 0.000001 0.376741 -1.384607 -0.671987 0.000000 0.000000 0.000000 5.291949 95.121224 -11.413571 0.000000 25.831345 -0.000000 -50.103430 -4.169150 -9.766442 40.606639 -3.110519 26.124241 -37.849469 -44.265035 -46.874946 -12.282879 -22.415204 -17.633347 0.000001 0.000000 0.000000 3.635318 -6.111008 61.464497 7.728613 -6.904467 96.464456 2.305143 -5.174783 47.998758 -0.000002 -0.000002 0.000000 3.635318 -6.111007 61.464497 7.728618 -6.904468 96.464449 2.305141 -5.174787 47.998758 0.000001 0.000001 0.000001 3.635315 -6.111005 61.464497 7.728618 -6.904478 96.464449 2.305147 -5.174781 47.998758 0.000004 0.000000 -0.000000 3.635318 -6.111008 61.464497 7.728625 -6.904476 96.464449 2.305142 -5.174778 47.998762 0.000001 0.000002 -0.000004 -34.027459 16.472272 14.955141 50.692827 3.217832 9.821207 -17.766029 2.253858 -12.399330 -0.202576 0.000007 0.000006 0.000000 -0.000000 -0.000000 -29.290208 -21.315555 -12.619944 49.929222 -2.016745 -9.731861 -21.472091 -2.742327 11.607334 -0.041325 0.000026 0.000003 0.000000 -0.000000 0.000000 
